# xmcd
#
# Track frame offsets: 
#        182
#        12942
#        24162
#        33145
#        43950
#        55735
#        68470
#        81965
#        93585
#        105082
#        117092
#        127290
#        138137
#        149180
#        158897
#        173152
#        183165
#        193600
#        206927
#        220157
#
# Disc length: 3085 seconds
#
# Revision: 2
# Processed by: cddbd v1.5.2PL0 Copyright (c) Steve Scherf et al.
# Submitted via: ExactAudioCopy v1.1
#
DISCID=160c0b14
DTITLE=(Various Artists) - Rhythm' N' Blues Gems - Vol. 3
DYEAR=1989
DGENRE=Blues
TTITLE0=Jackie Brenston - Rocket 88
TTITLE1=Don and Bob - Good Morning Little Schoolgirl
TTITLE2=The Marathons - Peanut Butter
TTITLE3=Etta James - Tough Baby
TTITLE4=Elton Anderson - I Love You
TTITLE5=Jimmy Reed - Shame, Shame, Shame
TTITLE6=The Ad-Libs - Boy From N. Y. City
TTITLE7=Chuck Berry - Nadine
TTITLE8=The Olympics - The Bounce
TTITLE9=Fats Domino - Packin' Up
TTITLE10=Junior Wells - Messin' With The Kid
TTITLE11=Dale Hawkins - Oh, Suzy Q
TTITLE12=Lee Dorsey - Ya Ya
TTITLE13=Rosco Gordon - Just A Little Bit
TTITLE14=The Moonglows - Mean Old Blues
TTITLE15=Rod Bernard - Pardon Mr.Gordon
TTITLE16=Jessie Hill - Ooh-Poo-Pah-Doo
TTITLE17=Jimmy Witherspoon - It Ain't No Secret
TTITLE18=Buster Brown - Fannie Mae
TTITLE19=Allen and Allen - Beverly Baby
EXTD=
EXTT0=
EXTT1=
EXTT2=
EXTT3=
EXTT4=
EXTT5=
EXTT6=
EXTT7=
EXTT8=
EXTT9=
EXTT10=
EXTT11=
EXTT12=
EXTT13=
EXTT14=
EXTT15=
EXTT16=
EXTT17=
EXTT18=
EXTT19=
PLAYORDER=
